@startuml

Creator ..> Product

Creator <|.. ConcreteCreator1
Creator <|.. ConcreteCreator2

Product <|.. ConcreteProduct1
Product <|.. ConcreteProduct2

ConcreteProduct1 <.. ConcreteCreator1
ConcreteProduct2 <.. ConcreteCreator2


interface Product{
    Operation()
}
class ConcreteProduct1{
   Operation()
}

class ConcreteProduct2{
   Operation()
}

abstract Creator {
    Product* FactoryMethod()
    SomeOperation()
}

class ConcreteCreator1 {
    Product* FactoryMethod()
}

class ConcreteCreator2 {
    Product* FactoryMethod()
}


@enduml