@startuml


class 氧气
class 水

class 动物{
    - 有生命
    + 新陈代谢(氧气,水)
    - 繁殖()

}

动物 ..> 氧气: Dependency依赖
动物 ..> 水

class 鸟{
    - 羽毛
    + 下蛋()
}

动物 <|-- 鸟
鸟   *-- 翅膀:  Composition组合
雁群 o-- 大雁:  Aggregation聚合 
企鹅 --> 气候:  Association关联

class 气候
class 翅膀
class 雁群{
    + V形飞行()
    + 一形飞行()
}
大雁 ..|> 飞翔 : Realization实现

鸟 <|-- 大雁
鸟 <|-- 鸭
鸟 <|-- 企鹅
鸭 <|-- 唐老鸭: Generalization泛化

class 大雁
class 鸭
class 企鹅
class 唐老鸭

大雁    : 飞()
大雁    : 下蛋()
鸭      : 下蛋()
企鹅    : 下蛋()
唐老鸭  : 讲话()

interface 飞翔
飞翔    : 飞()

@enduml